<svg xmlns="http://www.w3.org/2000/svg" xmlns:xlink="http://www.w3.org/1999/xlink"><symbol id="sprite-bathroom" viewBox="0 0 38 40"><path d="M36.5 21.25h-35A1.25 1.25 0 0 0 .25 22.5v6.25a7.51 7.51 0 0 0 7.5 7.5H9v2.5a1.25 1.25 0 0 0 2.5 0v-2.5h15v2.5a1.25 1.25 0 0 0 2.5 0v-2.5h1.25a7.51 7.51 0 0 0 7.5-7.5V22.5a1.25 1.25 0 0 0-1.25-1.25"/><path d="M19 7.625V6.25a3.75 3.75 0 0 1 7.5 0v12.5H29V6.25a6.25 6.25 0 0 0-12.5 0v1.375a6.26 6.26 0 0 0-5 6.125A1.25 1.25 0 0 0 12.75 15h10A1.25 1.25 0 0 0 24 13.75a6.26 6.26 0 0 0-5-6.125"/></symbol><use xlink:href="#sprite-bathroom" width="38" height="40" y="0"/><view id="sprite-bathroom-view" viewBox="0 0 38 40"/><symbol id="sprite-calendar" viewBox="0 0 24 24"><path d="M4 6a1 1 0 1 1-2 0 3 3 0 0 1 3-3h14a3 3 0 0 1 3 3v14a3 3 0 0 1-3 3H5a3 3 0 0 1-3-3V6m17-1H5a1 1 0 0 0-1 1v14a1 1 0 0 0 1 1h14a1 1 0 0 0 1-1V6a1 1 0 0 0-1-1" fill-rule="evenodd"/><path d="m15.788 14.616-3.125 4a1 1 0 0 1-1.496.09l-1.875-1.883a1 1 0 0 1 1.416-1.411l1.076 1.08 2.428-3.108a1 1 0 0 1 1.576 1.232"/><path d="M17 2v4a1 1 0 0 1-2 0V2a1 1 0 0 1 2 0"/><path d="M9 2v4a1 1 0 0 1-2 0V2a1 1 0 0 1 2 0"/><path d="M3 9h18a1 1 0 0 1 0 2H3a1 1 0 0 1 0-2"/></symbol><use xlink:href="#sprite-calendar" width="24" height="24" y="40"/><view id="sprite-calendar-view" viewBox="0 40 24 24"/><symbol id="sprite-clock" viewBox="0 0 24 24"><path d="M12 23a11 11 0 0 0 11-11A11 11 0 0 0 12 1 11 11 0 0 0 1 12a11 11 0 0 0 11 11m0-2a9 9 0 0 0 9-9 9 9 0 0 0-9-9 9 9 0 0 0-9 9 9 9 0 0 0 9 9" fill-rule="evenodd"/><path d="M13 6v5.382l3.447 1.724a1 1 0 1 1-.894 1.788l-4-2A1 1 0 0 1 11 12V6a1 1 0 0 1 2 0"/></symbol><use xlink:href="#sprite-clock" width="24" height="24" y="64"/><view id="sprite-clock-view" viewBox="0 64 24 24"/><symbol id="sprite-door" viewBox="0 0 31 40"><path d="M30.295 9.978h-16.82a4.056 4.056 0 1 0 0 5.796h16.82a.58.58 0 0 0 .58-.58v-4.636a.58.58 0 0 0-.58-.58"/><path d="M15.66.73H4.228A2.86 2.86 0 0 0 1.37 3.586L.824 36.413a2.86 2.86 0 0 0 2.858 2.858h11.432a2.86 2.86 0 0 0 2.858-2.858l.546-18.535h-3.82a6.43 6.43 0 1 1-.001-10.004h3.82V3.587A2.86 2.86 0 0 0 15.66.73M9.398 24.266a2.845 2.845 0 0 1 1.429 5.313v3.26a.714.714 0 0 1-.715.715H8.683a.715.715 0 0 1-.714-.714v-3.26a2.845 2.845 0 0 1 1.429-5.313"/></symbol><use xlink:href="#sprite-door" width="31" height="40" y="88"/><view id="sprite-door-view" viewBox="0 88 31 40"/><symbol id="sprite-filled" viewBox="0 0 30 36"><path d="m28.353 5.362-3.979-3.81C22.91.15 20.526.15 19.062 1.551L13.75 6.637l3.98 3.81 3.979-3.81L28.353 13A5.3 5.3 0 0 0 30 9.18a5.3 5.3 0 0 0-1.647-3.818"/><path d="M3.27 20.982a2.596 2.596 0 0 0 3.686 0l4.294-4.286L7.564 13 3.27 17.286a2.604 2.604 0 0 0 0 3.696"/><path d="m20.54 10.668 5.175 5.014c.17.164.304.359.396.573a1.7 1.7 0 0 1 0 1.352 1.8 1.8 0 0 1-.396.573 1.8 1.8 0 0 1-.594.383 1.89 1.89 0 0 1-1.994-.383L6.266 34.465c-1.431 1.382-3.761 1.382-5.192 0a3.465 3.465 0 0 1 0-5.015l12.971-12.527-5.834-5.634a2.6 2.6 0 0 1-.601-.86 2.56 2.56 0 0 1 0-2.036c.14-.322.343-.615.6-.86 1.065-1.046 2.808-1.046 3.89.018l5.835 5.634z"/></symbol><use xlink:href="#sprite-filled" width="30" height="36" y="128"/><view id="sprite-filled-view" viewBox="0 128 30 36"/><symbol id="sprite-guarante" viewBox="0 0 24 24"><path d="m14.138 2.245 1.042 1.058a1 1 0 0 0 .713.299h.007l1.487-.011h.023a3 3 0 0 1 3 2.999v.023l-.012 1.486v.008a1 1 0 0 0 .298.712l1.058 1.043A3 3 0 0 1 22.65 12a3 3 0 0 1-.895 2.138l-1.058 1.042a1 1 0 0 0-.299.713v.007l.011 1.487v.022a3 3 0 0 1-2.999 3h-.023L15.9 20.4h-.007a1 1 0 0 0-.712.297l-1.043 1.058A3 3 0 0 1 12 22.65a3 3 0 0 1-2.138-.895L8.82 20.697a1 1 0 0 0-.713-.299H8.1l-1.487.011H6.59a3 3 0 0 1-3-3v-.022l.012-1.487v-.007a1 1 0 0 0-.298-.713l-1.059-1.042A3 3 0 0 1 1.35 12a3 3 0 0 1 .895-2.138L3.304 8.82a1 1 0 0 0 .298-.712V8.1L3.59 6.613V6.59a3 3 0 0 1 2.999-3h.022l1.488.012h.007a1 1 0 0 0 .712-.298l1.043-1.059A3 3 0 0 1 12 1.35a3 3 0 0 1 2.138.895m-1.426 1.403 1.044 1.06a3 3 0 0 0 2.137.894h.022l1.487-.011h.008a1 1 0 0 1 1 1v.007l-.012 1.487v.022a3 3 0 0 0 .895 2.137l1.059 1.044a1 1 0 0 1 .298.71v.003a1 1 0 0 1-.297.71l-.001.001-1.059 1.044a3 3 0 0 0-.895 2.137v.022l.011 1.487v.008a1 1 0 0 1-1 1h-.007l-1.486-.012h-.023a3 3 0 0 0-2.137.895l-1.044 1.059a1 1 0 0 1-.71.298h-.003a1 1 0 0 1-.71-.297l-.001-.001-1.044-1.059a3 3 0 0 0-2.137-.895h-.022l-1.487.011H6.59a1 1 0 0 1-1-1v-.007l.012-1.487v-.022a3 3 0 0 0-.894-2.137l-1.06-1.044a1 1 0 0 1-.298-.71v-.003a1 1 0 0 1 .297-.71l.001-.001 1.059-1.043a3 3 0 0 0 .895-2.138v-.022L5.59 6.598V6.59a1 1 0 0 1 1-1h.007l1.487.012h.022a3 3 0 0 0 2.137-.895l1.044-1.059a1 1 0 0 1 .71-.298H12a1 1 0 0 1 .71.297z" fill-rule="evenodd"/><path d="m16.675 10.738-4.375 4a1 1 0 0 1-1.258.075L8.417 12.93a1 1 0 0 1 1.166-1.625l1.966 1.41 3.776-3.453a1 1 0 0 1 1.35 1.476"/></symbol><use xlink:href="#sprite-guarante" width="24" height="24" y="164"/><view id="sprite-guarante-view" viewBox="0 164 24 24"/><symbol id="sprite-map" viewBox="0 0 24 24"><path d="M17.258 19.779a15.13 15.13 0 0 0 4.738-9.689A1 1 0 0 0 22 10a10 10 0 0 0-2.929-7.071A10 10 0 0 0 12 0 10 10 0 0 0 2 10v.092a1 1 0 0 0 .005.09 15.27 15.27 0 0 0 4.792 9.655 30 30 0 0 0 1.567 1.531 32 32 0 0 0 1.41 1.21 3.53 3.53 0 0 0 2.224.795h.005a3.53 3.53 0 0 0 2.223-.796 33 33 0 0 0 1.126-.954 30 30 0 0 0 1.873-1.81h.001zm-1.386-1.442A13.13 13.13 0 0 0 20 9.955a8 8 0 0 0-2.343-5.612A8 8 0 0 0 12 2a8 8 0 0 0-8 8v.028a13.27 13.27 0 0 0 4.18 8.364l.045.045a28 28 0 0 0 1.483 1.45 30 30 0 0 0 1.326 1.137l.004.004a1.53 1.53 0 0 0 .962.345 1.53 1.53 0 0 0 .962-.346l.004-.003a31 31 0 0 0 1.06-.898 28 28 0 0 0 1.748-1.69l.05-.052z" fill-rule="evenodd"/><path d="M12 12" fill-rule="evenodd"/></symbol><use xlink:href="#sprite-map" width="24" height="24" y="188"/><view id="sprite-map-view" viewBox="0 188 24 24"/><symbol id="sprite-mold" viewBox="0 0 30 25"><path d="M0 1a1 1 0 0 1 1-1h12.082a1 1 0 0 1 1 1v4.757a1 1 0 0 1-1 1H1a1 1 0 0 1-1-1z"/><path d="M0 10.122a1 1 0 0 1 1-1h5.96a1 1 0 0 1 1 1v4.756a1 1 0 0 1-1 1H1a1 1 0 0 1-1-1z"/><path d="M9.796 10.122a1 1 0 0 1 1-1h12.082a1 1 0 0 1 1 1v4.756a1 1 0 0 1-1 1H10.796a1 1 0 0 1-1-1z"/><path d="M0 19.243a1 1 0 0 1 1-1h12.082a1 1 0 0 1 1 1V24a1 1 0 0 1-1 1H1a1 1 0 0 1-1-1z"/><path d="M15.918 19.243a1 1 0 0 1 1-1H29a1 1 0 0 1 1 1V24a1 1 0 0 1-1 1H16.918a1 1 0 0 1-1-1z"/></symbol><use xlink:href="#sprite-mold" width="30" height="25" y="212"/><view id="sprite-mold-view" viewBox="0 212 30 25"/><symbol id="sprite-repair" viewBox="0 0 36 33"><path d="M26.68 4.955a3.026 3.026 0 0 0 2.25 5.124 3.04 3.04 0 0 0 2.125-.93l4.03-4.192a8.55 8.55 0 0 1-1.475 9.78 8.58 8.58 0 0 1-9.725 1.87c-2.133-1.588-3.08-2.508-4.376-4.194a8.55 8.55 0 0 1 1.476-9.78A8.58 8.58 0 0 1 30.71.763z"/><path d="m11.616 20.787 4.398 4.17-6.53 6.926a3.035 3.035 0 0 1-5.219-2.036 3.03 3.03 0 0 1 .844-2.158z"/><path d="m17.166 13.303 14.292 13.552a3.56 3.56 0 0 1 .169 4.995 3.57 3.57 0 0 1-5.082.171L12.253 18.469a3.56 3.56 0 0 1-.736-4.174L4.882 7.9l-1.23 1.23L0 4.21l2.258-2.494 5.28 3.528-1.22 1.22 6.586 6.349a3.57 3.57 0 0 1 4.262.49"/></symbol><use xlink:href="#sprite-repair" width="36" height="33" y="237"/><view id="sprite-repair-view" viewBox="0 237 36 33"/><symbol id="sprite-roofting" viewBox="0 0 40 22"><path d="M13.911 5.907h-6.3l-.35.673h6.265l-2.738 4.782h-6.01l-.35.674h5.975L7.88 16.44H2.11l1.552-2.983v-1.421h.019v-.674h-.019V6.58h.019v-.673h-.019v-.358h.019v-1.33h4.786L10.234.825h6.587z"/><path d="m17.596.824-2.91 5.083h5.47l2.91-5.083z"/><path d="m23.842.824-2.91 5.083h5.89l1.3-2.539 8.84 17.809h3.39L29.766.824z"/><path d="M26.477 6.58h-5.93l-2.738 4.782h6.217z"/><path d="M23.68 12.036h-6.256l-2.521 4.404h6.52z"/><path d="M21.079 17.113h-6.562l-2.326 4.064h6.805z"/><path d="m11.415 21.177 2.327-4.064h-5.47l-2.327 4.064z"/><path d="m5.17 21.177 2.326-4.064H1.761l-2.114 4.064z"/><path d="M14.301 6.58h5.47l-2.737 4.782h-5.47z"/><path d="M11.178 12.036 8.657 16.44h5.47l2.521-4.405z"/><path d="M24.887 13.472h2.968v2.968h-2.968z"/><path d="M24.887 17.182h2.968v2.968h-2.968z"/><path d="M31.565 13.472h-2.968v2.968h2.967z"/><path d="M28.597 17.182h2.967v2.968h-2.967z"/></symbol><use xlink:href="#sprite-roofting" width="40" height="22" y="270"/><view id="sprite-roofting-view" viewBox="0 270 40 22"/><symbol id="sprite-tree" viewBox="0 0 35 36"><path d="M33.721.959h-3.526a.59.59 0 0 0-.525.325l-3 6-3-6a.59.59 0 0 0-.526-.325H10.217a.587.587 0 0 0-.588.588v15.382l-5.56-3.538a.59.59 0 0 0-.731.08L.4 16.409a.587.587 0 0 0-.024.806l9.253 10.41v6.828c0 .324.263.587.588.587h6.463v-9.402a.587.587 0 1 1 1.176 0v9.402H33.72a.587.587 0 0 0 .588-.587V1.547a.587.587 0 0 0-.588-.588M17.856 22.113a.587.587 0 1 1-1.176 0v-1.175a.587.587 0 1 1 1.176 0z"/></symbol><use xlink:href="#sprite-tree" width="35" height="36" y="292"/><view id="sprite-tree-view" viewBox="0 292 35 36"/><symbol id="sprite-vector" viewBox="0 0 19 13"><path d="m18.207 1.707-11 11a1 1 0 0 1-1.414 0l-5-5a1 1 0 0 1 1.414-1.414L6.5 10.586 16.793.293a1 1 0 0 1 1.414 1.414"/></symbol><use xlink:href="#sprite-vector" width="19" height="13" y="328"/><view id="sprite-vector-view" viewBox="0 328 19 13"/></svg>